PathFileType	4	(X/Y/Z)	c:/Users/goper/Files/vsCode/490R/osim_files/A03/A03_SSWS_02.trc
DataRate	CameraRate	NumFrames	NumMarkers	Units                	OrigDataRate	OrigDataStartFrame	OrigNumFrames
250.00	250.00	10	36	mm	250.0	1373	2745
                Frame#	Time	LPSIS			LASIS			LTH1			LTH2			LTH3			LTH4			LLFE			LMFE			LSH1			LSH2			LSH3			LSH4			LLMAL			LMMAL			LCAL			LMTP5			LTOE			LMTP1			RPSIS			RASIS			RTH1			RTH2			RTH3			RTH4			RLFE			RMFE			RSH1			RSH2			RSH3			RSH4			RLMAL			RMMAL			RCAL			RMTP1			RTOE			RMTP5		
		X1	Y1	Z1	X2	Y2	Z2	X3	Y3	Z3	X4	Y4	Z4	X5	Y5	Z5	X6	Y6	Z6	X7	Y7	Z7	X8	Y8	Z8	X9	Y9	Z9	X10	Y10	Z10	X11	Y11	Z11	X12	Y12	Z12	X13	Y13	Z13	X14	Y14	Z14	X15	Y15	Z15	X16	Y16	Z16	X17	Y17	Z17	X18	Y18	Z18	X19	Y19	Z19	X20	Y20	Z20	X21	Y21	Z21	X22	Y22	Z22	X23	Y23	Z23	X24	Y24	Z24	X25	Y25	Z25	X26	Y26	Z26	X27	Y27	Z27	X28	Y28	Z28	X29	Y29	Z29	X30	Y30	Z30	X31	Y31	Z31	X32	Y32	Z32	X33	Y33	Z33	X34	Y34	Z34	X35	Y35	Z35	X36	Y36	Z36

1373	5.48800	-1012.04388	1027.02271	308.00818	-1221.35242	938.65839	464.51114	-1135.14771	591.18616	532.14099	-1137.34851	547.46442	536.28375	-1196.93335	585.51874	524.19299	-1188.84839	542.07233	528.22375	-1118.89160	487.41385	527.03278	-1155.88843	463.10825	377.71774	-1025.82166	465.60703	509.50006	-990.28003	434.74814	502.89493	-1060.92810	412.60242	509.61816	-1019.35815	391.93503	496.86450	-745.28143	232.92430	424.13342	-770.88489	226.54327	328.01880	-698.47620	276.91403	362.29901	-788.48450	77.96426	440.23584	-840.21979	74.85030	379.42215	-812.01514	85.00830	329.57635	-1023.46167	1031.97241	227.13304	-1261.58630	952.22052	183.41754	-1313.71021	604.51904	123.61473	-1330.44727	564.32837	134.50873	-1371.05029	624.30450	132.86992	-1380.42102	582.15863	141.88481	-1358.65918	537.11108	152.59178	-1386.41650	556.91541	272.48865	-1314.39233	466.61435	149.22342	-1316.36377	424.96530	139.87831	-1377.34949	462.21777	153.06915	-1370.10840	416.12277	144.52786	-1330.19019	119.70961	211.01266	-1368.90015	115.29942	298.13416	-1278.87012	86.72733	273.99191	-1491.51355	48.54416	306.70721	-1518.93677	73.16586	257.02786	-1482.90393	43.27779	188.30708
1374	5.49200	-1016.83405	1027.78223	307.31027	-1226.41711	939.75934	464.13724	-1145.17407	591.51093	532.84503	-1147.65662	547.76080	536.97778	-1207.04504	586.20148	525.18365	-1199.17163	542.67889	529.16382	-1129.69714	487.82462	527.65997	-1167.32764	462.45798	378.64169	-1036.56213	467.16214	509.72324	-1000.02081	436.82315	503.40778	-1071.03430	413.64288	510.40417	-1029.30139	393.46060	497.35873	-753.48828	237.98027	423.89987	-779.47400	230.54033	327.59442	-708.05011	282.52573	361.50983	-793.49005	82.25048	441.10458	-845.24524	77.74735	380.60849	-817.61481	88.19367	330.46957	-1028.11340	1033.10291	226.41953	-1267.31189	953.32898	182.12723	-1316.92188	604.92999	123.79356	-1335.37927	563.07916	132.58182	-1373.97412	624.35449	132.26846	-1383.18530	582.18756	141.23692	-1361.35620	537.30481	152.03477	-1388.52917	557.11542	272.09396	-1316.71423	466.94406	149.03062	-1318.42126	425.28830	139.65520	-1379.68311	462.18982	152.65619	-1372.11755	416.13052	144.17029	-1330.34705	119.74584	210.81464	-1368.92456	115.43649	297.86673	-1278.91199	86.81760	273.92441	-1491.47241	48.55251	306.68594	-1518.92041	73.09457	256.96365	-1482.88721	43.20306	188.27333
1375	5.49600	-1021.59808	1028.59961	306.71146	-1231.44104	940.81708	463.71774	-1155.06750	592.07727	533.45935	-1157.75330	548.34796	537.56958	-1216.91968	587.16223	526.12036	-1209.34375	543.57635	530.00317	-1140.39392	488.64462	528.28113	-1178.54272	461.84705	379.55139	-1047.21155	469.00668	509.85654	-1010.36487	439.06818	503.65683	-1080.29114	416.02673	510.05869	-1039.17200	395.33069	497.80170	-761.69122	242.95331	423.69684	-788.27649	234.74001	327.48288	-717.13898	287.67117	360.71841	-799.81549	86.97684	442.51471	-851.86676	81.35242	382.17651	-824.70697	91.78419	331.79926	-1032.71057	1034.25232	225.80006	-1273.57300	954.52972	180.56555	-1319.65869	605.32294	123.30501	-1338.00916	563.44244	131.99243	-1376.78638	624.49237	131.69179	-1385.84021	582.29865	140.63069	-1363.91016	537.50250	151.52737	-1390.55481	557.23694	271.68024	-1318.78723	467.26050	148.93527	-1320.22278	425.59747	139.52802	-1381.69775	462.14331	152.22154	-1374.71704	416.35831	143.84590	-1330.50049	119.76330	210.68886	-1369.04663	115.52697	297.70862	-1278.97363	86.87466	273.90338	-1491.47485	48.55313	306.65576	-1518.91504	73.02338	256.92801	-1482.89099	43.12528	188.23741
1376	5.50000	-1026.32605	1029.42383	306.23959	-1237.26758	942.05023	463.32852	-1164.75000	592.77704	533.99860	-1167.61584	549.22522	538.09412	-1226.61365	588.33893	526.90375	-1219.20618	544.67969	530.84680	-1150.90186	489.84921	528.85150	-1189.30151	461.34854	380.63248	-1057.77039	471.17786	509.84564	-1020.59705	441.50720	503.82803	-1090.11670	417.78571	510.78262	-1049.02075	397.44138	498.28082	-770.06281	247.87202	423.52750	-796.82892	238.16002	328.91565	-726.23798	292.45563	359.88159	-806.93665	91.84842	443.91376	-859.62299	85.61385	384.03192	-832.91089	95.76658	333.38708	-1037.25366	1035.34631	225.22847	-1280.41833	955.82782	178.71301	-1322.29407	605.73895	122.80215	-1340.46240	563.80096	131.47186	-1379.58630	624.62762	131.11700	-1388.42310	582.44568	139.99203	-1366.35522	537.69348	151.03267	-1392.72229	557.30902	271.25674	-1320.65015	467.53775	148.79095	-1321.79114	425.86475	139.40750	-1383.57727	462.08145	151.76562	-1376.27161	416.28909	143.42113	-1330.62927	119.80642	210.63994	-1369.26001	115.62669	297.58820	-1279.03687	86.95368	273.87946	-1491.43872	48.53115	306.64285	-1518.90088	72.94804	256.89160	-1482.86523	43.05275	188.17706
1377	5.50400	-1030.97852	1030.25037	305.87363	-1241.47327	942.96783	463.02597	-1174.27002	593.86853	534.33362	-1177.32458	550.32959	538.60162	-1236.13513	589.74432	527.58569	-1228.98901	546.04144	531.63623	-1161.37280	491.47440	529.36792	-1200.67969	461.60706	381.55780	-1068.22742	473.57666	509.83621	-1030.86462	444.22220	503.94891	-1100.03967	419.86600	511.48340	-1058.86047	399.85437	498.72992	-778.67114	252.61415	423.36035	-806.29285	242.01862	329.17740	-735.58618	296.83795	359.03552	-814.61804	96.57867	445.44479	-867.89636	89.80882	386.09622	-841.46637	99.64972	334.93228	-1041.63818	1036.49792	224.76022	-1287.89648	957.22809	176.55000	-1324.91748	606.09436	122.33665	-1342.89160	564.04443	130.96284	-1382.36096	624.70203	130.45644	-1390.95251	582.52570	139.41652	-1368.60889	537.75531	150.61597	-1394.48376	556.60760	270.33185	-1322.31873	467.77597	148.62929	-1323.24365	426.02432	139.26579	-1385.26709	461.97263	151.27025	-1377.62231	416.23398	142.96167	-1330.71790	119.84493	210.57603	-1369.49341	115.73721	297.49789	-1279.11597	87.03136	273.90796	-1491.39795	48.50506	306.65350	-1518.91382	72.85402	256.84842	-1482.87219	43.00023	188.16084
1378	5.50800	-1035.58191	1031.09570	305.60916	-1246.60522	944.15674	462.69958	-1183.61377	595.14795	534.55450	-1186.97131	551.68890	539.05786	-1245.44312	591.47009	528.18433	-1238.57190	547.65515	532.38647	-1171.72388	493.51492	529.83740	-1211.81128	462.30017	382.35526	-1078.66003	476.24942	509.77771	-1041.09839	447.04568	503.99057	-1110.00781	422.26678	512.06921	-1068.85461	402.46359	499.18076	-787.76624	256.96747	423.17877	-816.10394	245.44533	329.41177	-745.42035	300.95660	358.12161	-822.45691	100.98009	447.04807	-876.42596	93.43464	388.30209	-850.49622	102.60940	336.82715	-1046.03845	1037.62183	224.45792	-1296.05615	958.73541	174.05701	-1327.41748	606.42133	121.83368	-1345.14221	564.26001	130.52089	-1385.36987	624.83588	129.89838	-1392.89722	582.19519	139.28996	-1371.74121	538.00208	150.89622	-1397.03381	555.44037	269.57928	-1323.92273	467.95297	148.37941	-1324.51184	426.20102	139.06055	-1386.87842	461.81766	150.70433	-1378.90198	416.10883	142.50887	-1330.79297	119.91772	210.51448	-1369.65820	115.80843	297.40497	-1279.20557	87.10924	273.91260	-1491.40454	48.49479	306.62799	-1518.90454	72.79521	256.81705	-1482.87842	42.95238	188.16533
1379	5.51200	-1040.15088	1031.89905	305.44864	-1251.80481	945.44525	462.34085	-1192.87000	597.00189	534.65717	-1196.54102	553.30530	539.55334	-1254.86938	593.40173	528.61646	-1248.20020	549.63434	533.06714	-1182.00342	495.92532	530.25867	-1222.92468	463.28510	383.21881	-1089.03674	479.09351	509.63474	-1051.34924	450.03198	504.08557	-1119.98230	424.92435	512.69800	-1078.82739	405.28494	499.63348	-797.33783	260.93668	422.99542	-826.22821	248.34464	329.61365	-755.91156	304.59695	357.21527	-830.48621	104.90813	448.57050	-885.46631	96.66689	390.68204	-859.40076	105.30988	338.59872	-1050.43152	1038.71631	224.21866	-1304.94617	960.35492	171.21448	-1329.82141	606.67310	121.36852	-1345.66028	566.04291	131.16530	-1387.89954	624.77301	129.35310	-1395.64844	582.50854	138.37915	-1373.72119	538.01489	150.36450	-1401.27136	555.66022	269.84567	-1325.07788	468.22403	147.99469	-1325.75232	426.33493	138.76949	-1388.24683	461.60968	150.06737	-1379.33105	415.78268	141.98145	-1330.90808	119.99676	210.41815	-1369.80310	115.97072	297.29190	-1279.28357	87.21660	273.90704	-1491.41882	48.49453	306.60324	-1518.88501	72.75031	256.75491	-1482.84521	42.89051	188.14948
1380	5.51600	-1044.67322	1032.74255	305.36700	-1257.04138	946.76880	461.95148	-1202.02405	598.77765	534.83691	-1206.02795	555.18915	540.06439	-1264.02979	595.61237	528.96832	-1257.70190	551.81323	533.73828	-1192.22864	498.47873	530.64185	-1234.53796	464.53394	384.40668	-1099.41797	482.00797	509.51068	-1061.63135	453.05453	504.10590	-1129.96777	427.78589	513.30884	-1088.86414	408.17526	500.03595	-807.20660	264.57498	422.77347	-836.52069	250.88214	329.70688	-766.51624	308.08560	356.36386	-838.77246	108.53706	449.96954	-893.90015	99.11397	392.54480	-868.30890	107.52460	340.14188	-1054.72900	1039.78247	224.10208	-1314.61511	962.09125	168.00287	-1332.13110	606.85400	120.95294	-1347.83728	566.13342	130.77954	-1390.37378	624.62585	128.89391	-1397.84778	582.32977	137.86497	-1375.49768	537.95294	149.84592	-1402.66809	556.81451	268.93985	-1326.83740	468.22070	147.70905	-1326.89282	426.44199	138.45534	-1389.73474	461.40747	149.50462	-1381.25354	415.80515	141.50078	-1331.01208	120.10018	210.27029	-1369.96814	116.12401	297.11243	-1279.34009	87.34524	273.86569	-1491.43542	48.53911	306.57846	-1518.90649	72.73274	256.69498	-1482.83057	42.85150	188.10983
1381	5.52000	-1049.18115	1033.61487	305.37726	-1262.32117	948.18597	461.52997	-1211.04407	600.64594	534.95709	-1215.42273	557.17371	540.49683	-1273.12354	598.06299	529.23999	-1267.22009	554.27808	534.29926	-1202.45667	501.00839	530.99365	-1246.47595	466.22293	384.87885	-1109.79150	484.80606	509.32257	-1071.84705	455.42847	501.75565	-1140.07129	430.53500	513.83765	-1099.01477	410.97888	500.45337	-817.24115	268.03918	422.51233	-846.92511	253.24879	329.75366	-777.20483	311.23993	355.49466	-847.38336	111.91244	451.14392	-902.85419	101.58607	394.38361	-877.67859	109.74023	341.79068	-1058.96423	1040.90100	224.01869	-1323.60242	963.73523	165.11369	-1334.26624	606.97607	120.53501	-1349.90564	566.13641	130.39693	-1392.68237	624.45050	128.38950	-1399.91553	582.09851	137.33565	-1377.22888	537.82318	149.32262	-1405.34045	556.55511	268.28143	-1328.26953	468.35263	147.36710	-1328.15186	426.54080	138.13441	-1391.11316	461.24579	148.95103	-1382.35876	415.70575	140.97685	-1331.09216	120.18896	210.09262	-1370.14380	116.26704	296.89978	-1279.41504	87.47923	273.72577	-1491.43530	48.60793	306.49634	-1518.89136	72.77448	256.59689	-1482.80615	42.78847	188.04448
1382	5.52400	-1053.57043	1034.54504	305.38968	-1267.63062	949.73138	461.06726	-1219.88806	602.45685	535.02155	-1224.77905	559.15265	540.88342	-1282.03638	600.62274	529.45233	-1276.65027	556.84552	534.79236	-1212.68579	503.44235	531.32196	-1257.22522	467.44467	385.37741	-1120.04578	487.76016	508.94992	-1081.62036	459.47681	500.61981	-1150.18823	433.18274	514.36389	-1109.20105	413.67691	500.74258	-827.26062	271.32373	422.26285	-857.46637	255.59850	329.90634	-787.83313	314.03461	354.65765	-856.58960	115.33261	452.51965	-912.39996	104.23461	396.22662	-887.56128	112.01383	343.42288	-1063.24231	1041.93604	224.02133	-1327.48621	964.64050	164.59317	-1336.41553	607.02490	120.16785	-1351.85754	566.14893	130.02010	-1394.87878	624.22034	127.85261	-1401.96069	581.90027	136.80222	-1378.77209	537.64844	148.88916	-1408.11157	556.31494	267.63373	-1329.64062	468.52884	147.05153	-1329.30383	426.73721	137.79137	-1392.49475	461.13452	148.44193	-1382.77502	415.45239	140.47285	-1331.17993	120.34014	209.82880	-1370.25708	116.41819	296.63324	-1279.43970	87.71117	273.58218	-1491.41504	48.72047	306.43094	-1518.82678	72.81631	256.47751	-1482.81030	42.72295	187.99959
